<svg width="2136" height="822" viewBox="0 0 2136 822" fill="none" xmlns="http://www.w3.org/2000/svg">
<path d="M1602 449.151V192.493C1602 174.774 1554.19 160.411 1495.2 160.411H1489.83C1461.5 160.411 1434.35 163.794 1414.32 169.81L565.287 424.856C545.262 430.871 534 439.03 534 447.538V822H0V447.538C0.00114977 396.485 67.5099 347.523 187.682 311.424L1036.71 56.3789C1156.88 20.2797 1319.88 0.000342847 1489.83 0H1495.2C1849.1 0 2136 86.1822 2136 192.493V449.151C2136 555.462 1849.1 641.645 1495.2 641.645H635V509L1495.2 481.234C1554.19 481.234 1602 466.871 1602 449.151ZM0 0H907.8L373.8 160.411H0V0Z" fill="white"/>
<path d="M635.5 671V821.511H2135.53V716.105L1981.32 671H635.5Z" fill="white"/>
</svg>
