<svg xmlns="http://www.w3.org/2000/svg" xml:space="preserve" width="2048" height="2048" style="shape-rendering:geometricPrecision;text-rendering:geometricPrecision;image-rendering:optimizeQuality;fill-rule:evenodd;clip-rule:evenodd"><defs><style>.fil0{fill:#212121;fill-rule:nonzero}</style></defs><g id="Layer_x0020_1"><path class="fil0" d="M671.999 255.998H1376c44.033 0 84.041 17.992 113.026 46.975 28.983 28.984 46.975 68.993 46.975 113.026v95.997c0 17.673-14.328 32.001-32.001 32.001h-16.062v960H1504c17.673 0 32 14.328 32 32.001V1632c0 44.033-17.99 84.042-46.974 113.027C1460.042 1774.01 1420.033 1792 1376 1792H671.999c-44.033 0-84.041-17.991-113.026-46.974-28.983-28.985-46.975-68.993-46.975-113.026v-96.003c0-17.673 14.328-32 32.001-32h16.06v-960H544c-17.673 0-32-14.329-32-32.002V416c0-44.033 17.99-84.042 46.974-113.026 28.984-28.983 68.993-46.975 113.026-46.975zM1376 320H671.999c-26.367 0-50.361 10.81-67.775 28.223C586.81 365.637 576 389.631 576 415.998v63.997h16.06c17.674 0 32.002 14.328 32.002 32.001v1024c0 17.673-14.328 32-32.001 32H576v64.002c0 26.367 10.809 50.362 28.223 67.776 17.414 17.414 41.408 28.223 67.775 28.223H1376c26.367 0 50.361-10.81 67.775-28.223 17.414-17.414 28.224-41.409 28.224-67.775v-64.002h-16.062c-17.673 0-32-14.328-32-32v-1024c0-17.674 14.327-32.002 32-32.002h16.062v-63.997c0-26.367-10.81-50.36-28.224-67.775C1426.361 330.81 1402.367 320 1376 320z"/><path class="fil0" d="M550.966 1504c-17.673 0-32 14.328-32 32 0 17.674 14.327 32.002 32 32.002H1497.036c17.673 0 32-14.328 32-32.001s-14.327-32.001-32-32.001H550.966zM895.999 367.998c-17.673 0-32 14.328-32 32 0 17.674 14.327 32.002 32 32.002h256.002c17.673 0 32-14.328 32-32.001s-14.327-32.001-32-32.001H895.999zM971.672 1616c-17.673 0-32 14.328-32 32 0 17.674 14.327 32.002 32 32.002h104.655c17.673 0 32-14.328 32-32.001S1094 1616 1076.328 1616H971.672zM550.966 479.998c-17.673 0-32 14.328-32 32 0 17.674 14.327 32.002 32 32.002H1497.036c17.673 0 32-14.328 32-32.001s-14.327-32.001-32-32.001H550.966zM735.996 671.996h192.005c17.631 0 33.64 7.192 45.226 18.775C984.81 702.356 992 718.364 992 735.996v192.005c0 17.632-7.191 33.64-18.774 45.226-11.586 11.583-27.595 18.775-45.226 18.775H735.996c-17.633 0-33.64-7.192-45.226-18.775-11.583-11.585-18.774-27.594-18.774-45.226V735.996c0-17.632 7.191-33.64 18.774-45.225 11.586-11.583 27.593-18.775 45.226-18.775zm192.005 64.002H928v-.002c0-.014-.003-.008-.006.002H736.002c-.004-.01-.005-.016-.005-.002v.002h-.001c-.014 0-.008 0 .001.004v191.992c-.01.004-.015.006-.001.006h.001v.001c0 .013.001.009.005 0h191.993c.003.009.005.013.005 0 .014 0 .01-.002 0-.005V736.003c.008-.003.014-.005 0-.005zm-.001 0h-.006l-.004.008.003-.001-.003.002c-.003.01-.008.02-.014.014-.007-.007.004-.012.014-.015v.001l.003-.002.007-.003v-.004zm-191.998 0h-.005v.004l.008.004c.011.003.022.01.016.015-.006.006-.012-.005-.016-.015l-.003-.008zM928 928v-.005l-.01-.005c-.01-.003-.02-.008-.014-.014s.01.004.014.014l.005.01H928zm-192.003 0h.005l.002-.007.002-.003c.003-.01.007-.02.014-.014.006.006-.004.01-.014.014l-.002.003.001-.003-.008.004V928zM1312 735.997h-.001v-.001c0-.014-.001-.008-.005.001h-191.992c-.003-.01-.006-.015-.006-.001v.001h-.001c-.013 0-.007.002.001.005v191.993c-.01.003-.014.004-.001.004h.001v.002c0 .013.001.008.005-.002h191.993c.003.01.005.015.005.002v-.002c.015 0 .01-.002 0-.005V736.002c.01-.004.015-.005 0-.005zm-.001 0h-.005l-.003.008.008-.003v-.005zm-191.997 0h-.006v.005l.007.002.002.002c.011.003.022.008.015.015-.006.006-.011-.004-.015-.015l-.002-.002.002.001-.003-.008zm-.007-64.002H1312c17.632 0 33.64 7.192 45.225 18.775 11.583 11.586 18.775 27.593 18.775 45.226V928c0 17.631-7.192 33.64-18.775 45.225-11.585 11.584-27.593 18.775-45.225 18.775h-192.005c-17.632 0-33.64-7.192-45.226-18.775-11.583-11.585-18.775-27.594-18.775-45.225V735.996c0-17.633 7.192-33.64 18.775-45.226 11.586-11.583 27.594-18.775 45.226-18.775zm0 256v.004h.006l.004-.01-.01.005zm.01-.005c.004-.011.009-.02.015-.014.005.005-.005.01-.015.014zm191.988.01h.005v-.007l-.008-.003.001.002-.002-.002c-.01-.005-.02-.009-.015-.014.006-.006.012.004.016.014h-.001l.002.002.002.007zm-.003-191.995c-.004.01-.01.021-.016.015-.005-.005.005-.011.016-.015zM735.996 1312h.001v.001c0 .014.001.008.005-.001h191.992c.003.01.006.015.006.001V1312H928c.013 0 .007-.002-.001-.005v-191.993c.01-.003.014-.004.001-.004H928v-.002c0-.013-.001-.008-.005.002H736.002c-.003-.01-.005-.015-.005-.002v.002c-.015 0-.01.002 0 .005v191.992c-.01.004-.015.005 0 .005zm.001 0h.005l.003-.008-.008.003v.005zm191.997 0H928v-.005l-.007-.002-.002-.002c-.011-.003-.022-.008-.015-.015.006-.006.011.004.015.015l.002.002-.002-.001.003.008zm.007 64.002H735.996c-17.632 0-33.64-7.192-45.225-18.775-11.583-11.586-18.775-27.593-18.775-45.226v-192.005c0-17.631 7.192-33.64 18.775-45.225 11.585-11.583 27.593-18.775 45.225-18.775h192.005c17.632 0 33.64 7.192 45.226 18.775 11.583 11.585 18.775 27.594 18.775 45.225v192.005c0 17.633-7.192 33.64-18.775 45.226-11.586 11.583-27.594 18.775-45.226 18.775zm0-256v-.004h-.006l-.004.01.01-.005zm-.01.005c-.004.011-.009.02-.015.014-.005-.005.005-.01.015-.014zm-191.988-.01h-.005v.007l.008.003-.001-.002.002.002c.01.005.02.009.015.014-.006.006-.012-.004-.016-.014h.001l-.002-.002-.002-.007zm.003 191.995c.004-.01.01-.021.016-.015.005.005-.005.011-.016.015zM1312 1376h-192.005c-17.631 0-33.64-7.192-45.226-18.775-11.583-11.585-18.774-27.593-18.774-45.225v-192.005c0-17.632 7.191-33.64 18.774-45.226 11.586-11.583 27.594-18.775 45.226-18.775H1312c17.633 0 33.64 7.192 45.226 18.775 11.583 11.585 18.774 27.594 18.774 45.226V1312c0 17.632-7.191 33.64-18.774 45.225C1345.64 1368.808 1329.633 1376 1312 1376zm-192.005-64.002h.001v.002c0 .014.003.008.006-.002h191.992c.004.01.005.016.005.002v-.002h.001c.014 0 .008 0-.001-.004v-191.992c.01-.004.015-.006.001-.006h-.001v-.001c0-.013-.001-.009-.005 0h-191.993c-.003-.009-.005-.013-.005 0-.014 0-.01.002 0 .005v191.993c-.008.003-.014.005 0 .005zm.001 0h.006l.004-.008-.003.001.003-.002c.003-.01.008-.02.014-.014.007.007-.004.012-.014.015v-.001l-.003.002-.007.003v.004zm191.998 0h.005v-.004l-.008-.004c-.011-.003-.022-.01-.016-.015.006-.006.012.005.016.015l.003.008zm-191.998-192.003v.005l.01.005c.01.003.02.008.014.014s-.01-.004-.014-.014l-.005-.01h-.005zm192.003 0h-.005l-.002.007-.002.003c-.003.01-.007.02-.014.014-.006-.006.004-.01.014-.014l.002-.003-.001.003.008-.004v-.006z"/><path class="fil0" d="M765.173 775.726h133.652c6.627 0 12 5.373 12 12v88.545c0 6.627-5.373 12-12 12H765.173c-6.627 0-12-5.373-12-12v-88.545c0-6.627 5.373-12 12-12zm121.652 24H777.173v64.545h109.652v-64.545z"/><path class="fil0" d="M772.532 778.305c-5.203-4.064-12.717-3.14-16.781 2.062-4.064 5.203-3.14 12.717 2.062 16.781l66.816 52.314-.027.035c4.723 3.697 11.35 3.295 15.594-.683l65.988-51.666c5.203-4.064 6.127-11.578 2.063-16.78-4.065-5.204-11.579-6.127-16.781-2.063l-59.467 46.56-59.467-46.56zM1216 758.872c20.197 0 38.666 5.978 52.192 15.639 14.708 10.506 23.807 25.362 23.807 42.074 0 13.714-6.143 26.188-16.51 36.065-8.87 8.449-20.934 14.966-34.789 18.538-37.227 45.39-77.107 31.966-77.224 31.929l3.703-11.391-3.712 11.412c-6.302-2.05-9.749-8.822-7.7-15.124a11.94 11.94 0 0 1 3.466-5.282c4.234-4.437 5.951-7.656 8.827-13.043.994-1.86 2.096-3.927 3.386-6.256-7.246-3.965-13.533-8.887-18.525-14.524-8.182-9.238-12.92-20.318-12.92-32.324 0-16.712 9.099-31.568 23.807-42.074 13.526-9.661 31.995-15.639 52.192-15.639zm38.316 35.139c-9.633-6.881-23.168-11.139-38.316-11.139-15.148 0-28.683 4.258-38.316 11.139-8.453 6.038-13.683 14.042-13.683 22.574 0 5.939 2.504 11.601 6.825 16.48 4.943 5.582 12.193 10.193 20.932 13.262 1.097.3 2.17.762 3.185 1.393 5.625 3.505 7.342 10.908 3.838 16.532l-.018-.01c-4.315 6.922-6.894 11.628-8.883 15.341 9.505-2.8 21.63-9.753 34.122-25.85a11.958 11.958 0 0 1 7.479-5.003l.006.03c11.267-2.343 20.87-7.138 27.502-13.453 5.657-5.39 9.01-11.885 9.01-18.722 0-8.532-5.23-16.536-13.683-22.574zM812.683 1268.3c0 6.627 5.373 12 12 12s12-5.373 12-12c0-7.655 14.362-75.155 21.513-108.286l30.633 22.975c5.28 3.96 12.773 2.89 16.734-2.39 3.96-5.281 2.89-12.774-2.391-16.735l-44.715-33.536a11.943 11.943 0 0 0-5.45-2.801c-6.471-1.426-12.875 2.665-14.3 9.137l11.718 2.581-11.719-2.578c-.074.341-26.023 119.022-26.023 131.633z"/><path class="fil0" d="M796.482 1223.78c11.176 0 21.3 4.534 28.625 11.86 7.325 7.325 11.86 17.45 11.86 28.625 0 11.123-4.53 21.229-11.86 28.579l-.023.022-.002.002.025.024c-.26.26-.529.505-.806.736-7.28 6.894-17.074 11.121-27.819 11.121-11.124 0-21.23-4.53-28.58-11.859l-.022-.024-.026.024c-.26-.26-.504-.53-.735-.807-6.895-7.279-11.122-17.074-11.122-27.818 0-11.133 4.54-21.25 11.883-28.602l-.023-.023v-.002l.145-.141c7.315-7.24 17.376-11.717 28.48-11.717zm11.658 28.827a16.44 16.44 0 0 0-11.658-4.827c-4.52 0-8.616 1.819-11.591 4.761l-.066.069-8.484-8.487 8.437 8.484c-2.953 2.953-4.78 7.074-4.78 11.658 0 4.343 1.641 8.27 4.325 11.181.17.153.34.312.504.476l-8.486 8.484 8.484-8.438c2.952 2.954 7.073 4.781 11.657 4.781 4.343 0 8.27-1.641 11.182-4.325.152-.171.311-.34.476-.504l8.483 8.486-8.437-8.484c2.954-2.953 4.78-7.073 4.78-11.657a16.44 16.44 0 0 0-4.826-11.658zM1149.58 1159.06h132.843c6.627 0 12 5.373 12 12v102.187c0 6.627-5.373 12-12 12H1149.58c-6.627 0-12-5.373-12-12V1171.06c0-6.627 5.373-12 12-12zm120.843 24H1161.58v78.187h108.843v-78.187z"/><path class="fil0" d="M1192.24 1158.76c0-6.627-5.373-12-12-12s-12 5.373-12 12v24.594c0 6.627 5.373 12 12 12s12-5.373 12-12v-24.594zM1264.19 1158.76c0-6.627-5.373-12-12-12s-12 5.373-12 12v24.594c0 6.627 5.373 12 12 12s12-5.373 12-12v-24.594zM1149.58 1199.35c-6.627 0-12 5.373-12 12s5.373 12 12 12h132.843c6.627 0 12-5.373 12-12s-5.373-12-12-12H1149.58z"/></g><path style="fill:none" d="M0 0h2048v2048H0z"/></svg>

