<svg xmlns="http://www.w3.org/2000/svg" width="128" height="128"><path d="M117.167 28.789a6.584 6.584 0 1 0-6.34-8.333H71.55v-4.051a1.751 1.751 0 0 0-1.75-1.75H58.2a1.751 1.751 0 0 0-1.75 1.75v4.352h-39.2a6.583 6.583 0 1 0-.166 3.5h26.108c-17.1 6.5-29.62 20.763-32.513 38.211H6a1.751 1.751 0 0 0-1.75 1.75v11.6A1.75 1.75 0 0 0 6 77.568h11.6a1.75 1.75 0 0 0 1.75-1.75v-11.6a1.751 1.751 0 0 0-1.75-1.75h-3.38C17.771 42.7 34.735 27.433 56.45 24.48v3.525a1.75 1.75 0 0 0 1.75 1.75h2.525L34.218 69.4a1.751 1.751 0 0 0-.114 1.747l12.118 24.559a21.135 21.135 0 0 0-7.206 15.975 1.751 1.751 0 0 0 1.748 1.664h46.472a1.75 1.75 0 0 0 1.748-1.664 21.135 21.135 0 0 0-7.206-15.975L93.9 71.142a1.751 1.751 0 0 0-.114-1.747l-26.511-39.64H69.8a1.75 1.75 0 0 0 1.75-1.75V24.48c21.715 2.953 38.679 18.223 42.23 37.988h-3.38a1.751 1.751 0 0 0-1.75 1.75v11.6a1.75 1.75 0 0 0 1.75 1.75H122a1.75 1.75 0 0 0 1.75-1.75v-11.6a1.751 1.751 0 0 0-1.75-1.75h-4.679C114.383 44.745 101.513 30.307 84 23.956h26.829a6.589 6.589 0 0 0 6.338 4.833zM15.85 74.068h-8.1v-8.1h8.1zm104.4 0h-8.1v-8.1h8.1zm-3.083-54.946a3.084 3.084 0 1 1-3.084 3.084 3.087 3.087 0 0 1 3.084-3.084zM10.833 25.289a3.084 3.084 0 1 1 3.084-3.083 3.086 3.086 0 0 1-3.084 3.083zM64 64.284a5.734 5.734 0 1 1-5.734 5.735A5.74 5.74 0 0 1 64 64.284zm21.416 45.561H42.593A17.571 17.571 0 0 1 49 97.926h30a17.435 17.435 0 0 1 6.416 11.919zm-6.909-15.419H49.493L37.689 70.5 62.25 33.771v27.185a9.234 9.234 0 1 0 3.5 0V33.771L90.311 70.5zM68.05 26.255h-8.1v-8.1h8.1z"/></svg>

